# xmcd
#
# Track frame offsets: 
#        150
#        16244
#        47948
#        67495
#        89634
#        107644
#        132480
#        147707
#        169958
#        207707
#        225101
#        251541
#
# Disc length: 3645 seconds
#
# Revision: 0
# Processed by: cddbd v1.5.1PL0 Copyright (c) Steve Scherf et al.
# Submitted via: ExactAudioCopy v0.95a5
#
DISCID=bb0e3b0c
DTITLE=Brian Houston - Jesus And Justice
DYEAR=2005
DGENRE=Christian
TTITLE0=God Is My Sheperd
TTITLE1=What A Friend We Have In Jesus
TTITLE2=Sweeter Wine
TTITLE3=How Beautiful You Are
TTITLE4=Wear My Ring
TTITLE5=Want To Be Walking (In Your Ways)
TTITLE6=Jesus Christ
TTITLE7=When You Carried Me
TTITLE8=Everybody Needs a Healer
TTITLE9=Precious Lord
TTITLE10=The Path Of Least Resistance
TTITLE11=We Don't Need Religion
EXTD=
EXTT0=
EXTT1=
EXTT2=
EXTT3=
EXTT4=
EXTT5=
EXTT6=
EXTT7=
EXTT8=
EXTT9=
EXTT10=
EXTT11=
PLAYORDER=
